HIERARCHY
ROOT Hips
{
 OFFSET 0.000000 0.000000 0.000000
 CHANNELS 6 Xposition Yposition Zposition Yrotation Xrotation Zrotation
 JOINT Chest
 {
  OFFSET 0.000000 9.585900 0.002600
  CHANNELS 3 Yrotation Xrotation Zrotation
  JOINT Chest2
  {
   OFFSET 0.000000 9.601200 -0.005300
   CHANNELS 3 Yrotation Xrotation Zrotation
   JOINT Chest3
   {
    OFFSET 0.000000 9.561800 0.000000
    CHANNELS 3 Yrotation Xrotation Zrotation
    JOINT Chest4
    {
     OFFSET 0.000000 9.552100 0.000000
     CHANNELS 3 Yrotation Xrotation Zrotation
     JOINT Neck
     {
      OFFSET 0.000000 14.453000 0.000000
      CHANNELS 3 Yrotation Xrotation Zrotation
      JOINT Head
      {
       OFFSET 0.000000 8.936500 -0.011300
       CHANNELS 3 Yrotation Xrotation Zrotation
       End Site
       {
        OFFSET 0.000000 17.073600 -0.006000
       }
      }
     }
     JOINT RightCollar
     {
      OFFSET -2.921100 9.558500 0.000000
      CHANNELS 3 Yrotation Xrotation Zrotation
      JOINT RightShoulder
      {
       OFFSET -13.519700 0.000000 0.000000
       CHANNELS 3 Yrotation Xrotation Zrotation
       JOINT RightElbow
       {
        OFFSET 0.000000 -29.696600 0.000000
        CHANNELS 3 Yrotation Xrotation Zrotation
        JOINT RightWrist
        {
         OFFSET 0.000000 -24.004700 0.000000
         CHANNELS 3 Yrotation Xrotation Zrotation
         End Site
         {
          OFFSET 0.000000 -17.728500 0.000000
         }
        }
       }
      }
     }
     JOINT LeftCollar
     {
      OFFSET 2.921100 9.558500 0.000000
      CHANNELS 3 Yrotation Xrotation Zrotation
      JOINT LeftShoulder
      {
       OFFSET 13.519700 0.000000 0.000000
       CHANNELS 3 Yrotation Xrotation Zrotation
       JOINT LeftElbow
       {
        OFFSET 0.000000 -29.696600 0.000000
        CHANNELS 3 Yrotation Xrotation Zrotation
        JOINT LeftWrist
        {
         OFFSET 0.000000 -24.004700 0.000000
         CHANNELS 3 Yrotation Xrotation Zrotation
         End Site
         {
          OFFSET 0.000000 -17.728500 0.000000
         }
        }
       }
      }
     }
    }
   }
  }
 }
 JOINT RightHip
 {
  OFFSET -7.771700 -0.012900 -0.001300
  CHANNELS 3 Yrotation Xrotation Zrotation
  JOINT RightKnee
  {
   OFFSET 0.000000 -40.869800 0.001200
   CHANNELS 3 Yrotation Xrotation Zrotation
   JOINT RightAnkle
   {
    OFFSET 0.000000 -39.717900 0.002100
    CHANNELS 3 Yrotation Xrotation Zrotation
    JOINT RightToe
    {
     OFFSET 0.000000 -4.965400 11.033500
     CHANNELS 3 Yrotation Xrotation Zrotation
     End Site
     {
      OFFSET 0.000000 -1.423100 5.872300
     }
    }
   }
  }
 }
 JOINT LeftHip
 {
  OFFSET 7.771700 -0.012900 -0.001300
  CHANNELS 3 Yrotation Xrotation Zrotation
  JOINT LeftKnee
  {
   OFFSET 0.000000 -40.869800 0.001200
   CHANNELS 3 Yrotation Xrotation Zrotation
   JOINT LeftAnkle
   {
    OFFSET 0.000000 -39.717900 0.002100
    CHANNELS 3 Yrotation Xrotation Zrotation
    JOINT LeftToe
    {
     OFFSET 0.000000 -4.965400 11.033500
     CHANNELS 3 Yrotation Xrotation Zrotation
     End Site
     {
      OFFSET 0.000000 -1.423100 5.872300
     }
    }
   }
  }
 }
}
MOTION
Frames: 9
Frame Time: 0.008333
-59.403318 44.502664 19.443406 174.507646 -26.550048 -0.684055 -0.740266 18.051260 3.205189 -0.125380 2.037364 0.382834 -0.222098 3.388509 0.614079 -0.693049 15.745673 2.836730 -1.921659 15.650848 -5.079284 -0.865679 -9.135998 -4.973998 7.732218 4.999412 -5.727667 -11.426951 -0.626523 -6.472462 -162.393069 -76.947609 -176.309386 -5.456061 2.395218 -34.935510 -8.126607 2.840745 -3.551518 10.003699 -2.692452 2.531801 125.506441 -69.480179 -157.093055 19.665553 12.810693 33.467909 -1.738357 -65.223735 10.228019 -145.438396 64.848277 -143.289160 -9.925035 -28.550483 8.784031 -0.020465 0.408807 -0.139449 3.634356 -53.050778 -1.304920 173.416581 61.719115 174.592811 0.549564 -38.448319 0.930301 -0.006134 -0.047332 0.008096
-59.403273 44.493616 19.437056 174.489312 -26.517376 -0.653965 -0.738505 18.031494 3.175764 -0.133496 2.038521 0.374100 -0.211489 3.374925 0.619295 -0.699747 15.732928 2.822052 -1.924340 15.600134 -5.068508 -0.877219 -9.217396 -4.958618 7.731342 4.954818 -5.771644 -11.321924 -0.758596 -6.517288 -162.422333 -76.913786 -176.302644 -5.437583 2.440592 -34.910306 -8.131071 2.804554 -3.539994 9.936490 -2.830957 2.618010 125.318301 -69.382702 -156.902269 19.768792 12.790232 33.732976 -1.807397 -65.275838 10.311447 -145.351749 64.817148 -143.253984 -9.883399 -28.469805 8.721968 -0.024685 0.277968 -0.077972 3.670380 -53.079658 -1.319398 173.439845 61.706073 174.602055 0.528767 -38.474576 0.946153 0.000241 -0.034386 0.007736
-59.406071 44.479679 19.428467 174.471999 -26.501246 -0.608905 -0.741437 18.026067 3.131374 -0.130948 2.032497 0.374278 -0.209059 3.370580 0.619923 -0.709503 15.722145 2.806063 -1.929751 15.544984 -5.060085 -0.893061 -9.306034 -4.944697 7.744485 4.858401 -5.879446 -11.207965 -0.828901 -6.525221 -162.429600 -76.882068 -176.330051 -5.426077 2.478649 -34.887962 -8.158609 2.684504 -3.534925 9.889738 -2.892884 2.728788 125.192367 -69.296181 -156.754892 19.852285 12.770012 33.979144 -1.773535 -65.302646 10.287528 -145.282736 64.803188 -143.209948 -9.830247 -28.304316 8.642137 -0.005881 0.007334 -0.003870 3.727213 -53.093427 -1.363628 173.453890 61.690936 174.603959 0.513415 -38.494918 0.955664 0.001341 -0.028442 0.010346
-59.405607 44.459798 19.423134 174.442391 -26.469349 -0.581485 -0.722081 17.997625 3.115031 -0.133199 2.034085 0.372302 -0.213657 3.368835 0.614263 -0.708896 15.709885 2.799167 -1.935831 15.487225 -5.053393 -0.900985 -9.367787 -4.935842 7.768371 4.785945 -5.958892 -11.088961 -0.929524 -6.573206 -162.401678 -76.851577 -176.403511 -5.422727 2.515554 -34.869658 -8.183822 2.561173 -3.528122 9.836995 -2.952637 2.843084 125.121798 -69.219556 -156.645580 19.918962 12.745669 34.205021 -1.776274 -65.346419 10.317903 -145.168277 64.800552 -143.125153 -9.770702 -28.116815 8.555949 -0.006721 -0.152421 0.046967 3.768513 -53.130802 -1.374379 173.465036 61.667151 174.607442 0.497731 -38.528900 0.963394 0.004107 -0.011299 0.012422
-59.404771 44.434425 19.423960 174.392248 -26.400179 -0.551455 -0.689385 17.944168 3.101186 -0.132943 2.029772 0.370802 -0.213033 3.361872 0.611805 -0.707369 15.699888 2.794058 -1.942058 15.426567 -5.047739 -0.908706 -9.432615 -4.928080 7.792292 4.726445 -6.023262 -10.957395 -1.051494 -6.650970 -162.290397 -76.823240 -176.561956 -5.420540 2.557078 -34.858024 -8.201778 2.461543 -3.517505 9.778067 -3.037179 2.955695 125.084342 -69.149500 -156.560027 19.972689 12.714569 34.410488 -1.815675 -65.433357 10.404810 -145.039684 64.796055 -143.035260 -9.716173 -27.907622 8.460204 0.007975 -0.291905 0.091961 3.824942 -53.211071 -1.381630 173.472788 61.640530 174.610153 0.482080 -38.565402 0.971421 0.008752 0.011993 0.011907
-59.400550 44.409124 19.423767 174.340266 -26.342664 -0.539642 -0.651671 17.903746 3.107807 -0.143715 2.042430 0.368040 -0.200398 3.338882 0.610523 -0.699246 15.691943 2.793862 -1.953335 15.362815 -5.046288 -0.916584 -9.499594 -4.922012 7.816331 4.663362 -6.091640 -10.822856 -1.175680 -6.743684 -162.054119 -76.797727 -176.838450 -5.417500 2.607703 -34.845195 -8.222845 2.360911 -3.508374 9.729611 -3.124085 3.073090 125.055602 -69.082889 -156.480323 20.016217 12.678364 34.587682 -1.870112 -65.502783 10.509533 -144.910765 64.803552 -142.929417 -9.653860 -27.706841 8.363046 0.029670 -0.393263 0.122834 3.858023 -53.281588 -1.359274 173.482899 61.610552 174.619155 0.480563 -38.601719 0.968000 0.007919 0.031800 0.012097
-59.399385 44.386223 19.418784 174.321037 -26.316271 -0.519393 -0.650661 17.898401 3.091545 -0.141754 2.037863 0.368625 -0.200524 3.333724 0.606734 -0.691265 15.680754 2.792463 -1.964265 15.298915 -5.044483 -0.924570 -9.565676 -4.918313 7.846586 4.597782 -6.156163 -10.689095 -1.300084 -6.854385 -161.666426 -76.774016 -177.258812 -5.420513 2.668802 -34.825827 -8.244077 2.263889 -3.498340 9.696890 -3.213488 3.194983 125.019127 -69.017180 -156.392843 20.053085 12.639627 34.733614 -1.932055 -65.533431 10.587961 -144.850574 64.792014 -142.909383 -9.621496 -27.571551 8.310202 0.039247 -0.454736 0.130392 3.892155 -53.318286 -1.380117 173.485349 61.582517 174.621707 0.485120 -38.630206 0.965657 0.006813 0.045395 0.008290
-59.396745 44.361642 19.417012 174.282754 -26.270546 -0.498031 -0.627438 17.872609 3.085717 -0.142392 2.035484 0.368179 -0.198878 3.326497 0.604520 -0.689794 15.669035 2.787723 -1.963401 15.269027 -5.041516 -0.939998 -9.657492 -4.917366 7.887613 4.534854 -6.213081 -10.553318 -1.427600 -6.985800 -161.121830 -76.751996 -177.829334 -5.436022 2.734751 -34.802513 -8.261717 2.171440 -3.490228 9.679977 -3.302500 3.321647 124.971134 -68.952920 -156.299392 20.091305 12.598016 34.853131 -1.905663 -65.578893 10.595445 -144.831633 64.805071 -142.883254 -9.612395 -27.501884 8.275040 0.045499 -0.476510 0.130508 3.930695 -53.375414 -1.384095 173.494632 61.554861 174.629627 0.481583 -38.660610 0.968829 0.010146 0.060742 0.004010
-59.393400 44.336296 19.413985 174.257684 -26.233487 -0.481461 -0.628724 17.881899 3.075888 -0.124407 1.999596 0.366259 -0.209510 3.338341 0.603906 -0.681591 15.643764 2.785142 -1.963505 15.241761 -5.041950 -0.950390 -9.739981 -4.922433 7.934822 4.478240 -6.265754 -10.416942 -1.561676 -7.136465 -160.430921 -76.731209 -178.539541 -5.467676 2.799122 -34.771132 -8.279764 2.083488 -3.487963 9.676962 -3.389338 3.451129 124.917026 -68.886883 -156.208728 20.139956 12.559655 34.957961 -1.931062 -65.610711 10.639728 -144.808334 64.802576 -142.866263 -9.608796 -27.463057 8.248079 0.053707 -0.484050 0.127322 3.957323 -53.425164 -1.386110 173.510885 61.527789 174.643273 0.476521 -38.688863 0.975724 0.012706 0.075930 -0.000434
